<svg data-v-0dd9719b="" version="1.0" xmlns="http://www.w3.org/2000/svg" xmlns:xlink="http://www.w3.org/1999/xlink" width="100%" height="100%" viewBox="0 0 340.000000 250.000000" preserveAspectRatio="xMidYMid meet" color-interpolation-filters="sRGB" style="margin: auto;"> <rect data-v-0dd9719b="" x="0" y="0" width="100%" height="100%" fill="#fff" fill-opacity="1" class="background"></rect> <rect data-v-0dd9719b="" x="0" y="0" width="100%" height="100%" fill="url(#watermark)" fill-opacity="1" class="watermarklayer"></rect> <g data-v-0dd9719b="" fill="#333333" class="icon-text-wrapper icon-svg-group iconsvg" transform="translate(47.410003662109375,99.74875068664551)"><g class="iconsvg-imagesvg" transform="translate(0,0)"><g><rect fill="#333333" fill-opacity="0" stroke-width="2" x="0" y="0" width="60" height="50.50249987374375" class="image-rect"></rect> <svg x="0" y="0" width="60" height="50.50249987374375" filtersec="colorsb3215098215" class="image-svg-svg primary" style="overflow: visible;"><svg xmlns="http://www.w3.org/2000/svg" viewBox="0 -0.00006458814459620044 117.51065063476562 98.91006469726562"><defs><linearGradient id="a9cea837b-e073-41ca-8ecd-77af4e8a4a3e" x1="50.37" y1="105.49" x2="81.59" y2="54.22" gradientUnits="userSpaceOnUse"><stop offset="0" stop-color="#e97100"></stop><stop offset="1" stop-color="#f6cb00"></stop></linearGradient><linearGradient id="b6a84f500-7601-4439-a926-cd8141f3c0fd" x1="20.23" y1="87.14" x2="51.45" y2="35.87" gradientUnits="userSpaceOnUse"><stop offset="0" stop-color="#e97100"></stop><stop offset="1" stop-color="#f6cb00"></stop></linearGradient><linearGradient id="c73ff9834-8b77-4f4a-bfc9-538f8640cbf8" x1="80.14" y1="123.62" x2="111.36" y2="72.35" gradientUnits="userSpaceOnUse"><stop offset="0" stop-color="#e97100"></stop><stop offset="1" stop-color="#f6cb00"></stop></linearGradient><linearGradient id="dc1555fd3-0d07-4ca4-8acc-eb218a1a7b23" x1="91.68" y1="36.01" x2="106.47" y2="12.68" gradientTransform="rotate(76.72 98.904 24.613)" gradientUnits="userSpaceOnUse"><stop offset="0" stop-color="#e00"></stop><stop offset="1" stop-color="#f58e00"></stop></linearGradient></defs><g><g><path d="M71.33 98.91h-30.9L70.09 45.3a13.47 13.47 0 0 1 11.8-6.95H82a13.48 13.48 0 0 1 11.8 20z" fill="url(#a9cea837b-e073-41ca-8ecd-77af4e8a4a3e)"></path><path d="M30.9 98.91H0l51.25-92A13.47 13.47 0 0 1 63 0a13.48 13.48 0 0 1 11.84 20z" fill="url(#b6a84f500-7601-4439-a926-cd8141f3c0fd)"></path><path d="M111.17 98.91h-30.9l12-21.47a13.48 13.48 0 0 1 11.76-6.89 13.48 13.48 0 0 1 11.76 20.07z" fill="url(#c73ff9834-8b77-4f4a-bfc9-538f8640cbf8)"></path><circle cx="98.91" cy="24.62" r="13.73" transform="rotate(-76.72 98.905 24.614)" fill="url(#dc1555fd3-0d07-4ca4-8acc-eb218a1a7b23)"></circle></g></g></svg></svg> <!----></g></g> <g transform="translate(67,15.331249237060547)"><g data-gra="path-name" fill-rule="" class="tp-name iconsvg-namesvg"><g transform="scale(1)"><g><path d="M11.19 0.3Q8.32 0.3 6.15-0.96L6.15-0.96Q3.91-2.23 2.7-4.48 1.49-6.73 1.49-9.59L1.49-9.59Q1.49-12.51 2.76-14.77L2.76-14.77Q4.02-17.04 6.23-18.29 8.43-19.54 11.11-19.54L11.11-19.54Q13.15-19.54 14.76-19.05 16.37-18.55 17.97-17.56L17.97-17.56Q18.22-17.45 18.39-17.16 18.55-16.87 18.55-16.54L18.55-16.54Q18.55-16.07 18.22-15.73 17.89-15.38 17.37-15.38L17.37-15.38Q17.12-15.38 16.79-15.52L16.79-15.52Q15.46-16.29 14.17-16.68 12.87-17.06 11.38-17.06L11.38-17.06Q9.37-17.06 7.61-16.18L7.61-16.18Q5.9-15.27 4.98-13.56 4.05-11.85 4.05-9.59L4.05-9.59Q4.05-7.47 4.96-5.76L4.96-5.76Q5.87-4.02 7.58-3.07 9.29-2.12 11.52-2.12L11.52-2.12Q14.06-2.12 16.32-3.34L16.32-3.34 16.32-7.94Q16.32-8.27 15.99-8.27L15.99-8.27 11.8-8.27Q11.33-8.27 10.98-8.61 10.64-8.96 10.64-9.43L10.64-9.43Q10.64-9.9 10.98-10.24 11.33-10.58 11.8-10.58L11.8-10.58 17.23-10.58Q17.78-10.58 18.18-10.19 18.58-9.79 18.58-9.23L18.58-9.23 18.58-2.98Q18.58-2.4 18.3-1.94 18.03-1.49 17.5-1.24L17.5-1.24Q14.36 0.3 11.19 0.3L11.19 0.3ZM35.17-8.66Q36.96-8.13 37.76-6.35 38.56-4.58 38.56-2.37L38.56-2.37 38.56-1.1Q38.56-0.58 38.19-0.21 37.82 0.17 37.3 0.17L37.3 0.17Q36.72 0.17 36.36-0.18 36-0.52 36-1.1L36-1.1 36-1.93Q36-3.31 35.75-4.49L35.75-4.49Q35.48-5.79 34.5-6.63 33.52-7.47 31.75-7.47L31.75-7.47 26.08-7.47 26.08-1.1Q26.08-0.58 25.69-0.21 25.3 0.17 24.78 0.17L24.78 0.17Q24.26 0.17 23.89-0.21 23.51-0.58 23.51-1.1L23.51-1.1 23.51-17.97Q23.51-18.5 23.89-18.88 24.26-19.27 24.78-19.27L24.78-19.27 31.2-19.27Q34.84-19.27 36.79-17.74 38.73-16.21 38.73-13.64L38.73-13.64Q38.73-11.96 37.81-10.61 36.88-9.26 35.17-8.66L35.17-8.66ZM31.04-9.9Q33.44-9.9 34.8-10.85 36.17-11.8 36.17-13.45L36.17-13.45Q36.17-15.16 34.94-16 33.71-16.84 30.9-16.84L30.9-16.84 26.41-16.84Q26.08-16.84 26.08-16.51L26.08-16.51 26.08-9.9 31.04-9.9ZM44.41 0.03Q43.88 0.03 43.51-0.34 43.14-0.72 43.14-1.24L43.14-1.24 43.14-17.97Q43.14-18.5 43.51-18.88 43.88-19.27 44.41-19.27L44.41-19.27 55.46-19.27Q55.96-19.27 56.32-18.91 56.67-18.55 56.67-18.06L56.67-18.06Q56.67-17.56 56.32-17.21 55.96-16.87 55.46-16.87L55.46-16.87 46.03-16.87Q45.7-16.87 45.7-16.54L45.7-16.54 45.7-10.83 54.47-10.83Q54.96-10.83 55.32-10.47 55.68-10.12 55.68-9.62L55.68-9.62Q55.68-9.12 55.32-8.78 54.96-8.43 54.47-8.43L54.47-8.43 45.7-8.43 45.7-2.7Q45.7-2.37 46.03-2.37L46.03-2.37 55.46-2.37Q55.96-2.37 56.32-2.01 56.67-1.65 56.67-1.16L56.67-1.16Q56.67-0.66 56.32-0.32 55.96 0.03 55.46 0.03L55.46 0.03 44.41 0.03ZM61.99 0.03Q61.47 0.03 61.1-0.34 60.73-0.72 60.73-1.24L60.73-1.24 60.73-17.97Q60.73-18.5 61.1-18.88 61.47-19.27 61.99-19.27L61.99-19.27 73.05-19.27Q73.54-19.27 73.9-18.91 74.26-18.55 74.26-18.06L74.26-18.06Q74.26-17.56 73.9-17.21 73.54-16.87 73.05-16.87L73.05-16.87 63.62-16.87Q63.29-16.87 63.29-16.54L63.29-16.54 63.29-10.83 72.06-10.83Q72.55-10.83 72.91-10.47 73.27-10.12 73.27-9.62L73.27-9.62Q73.27-9.12 72.91-8.78 72.55-8.43 72.06-8.43L72.06-8.43 63.29-8.43 63.29-2.7Q63.29-2.37 63.62-2.37L63.62-2.37 73.05-2.37Q73.54-2.37 73.9-2.01 74.26-1.65 74.26-1.16L74.26-1.16Q74.26-0.66 73.9-0.32 73.54 0.03 73.05 0.03L73.05 0.03 61.99 0.03ZM79.58 0.17Q79.06 0.17 78.68-0.21 78.31-0.58 78.31-1.1L78.31-1.1 78.31-17.56Q78.31-18.3 78.85-18.85 79.39-19.41 80.13-19.41L80.13-19.41 80.49-19.41Q81.37-19.41 82.03-18.58L82.03-18.58 92.21-3.89Q92.34-3.72 92.43-3.72L92.43-3.72Q92.48-3.72 92.54-3.8 92.59-3.89 92.59-4L92.59-4 92.59-18.11Q92.59-18.63 92.96-19.02 93.34-19.41 93.86-19.41L93.86-19.41Q94.38-19.41 94.77-19.02 95.15-18.63 95.15-18.11L95.15-18.11 95.15-1.65Q95.15-0.91 94.6-0.37 94.05 0.17 93.31 0.17L93.31 0.17 92.98 0.17Q92.54 0.17 92.14-0.04 91.74-0.25 91.49-0.58L91.49-0.58 81.26-15.35Q81.12-15.52 81.04-15.52L81.04-15.52Q80.99-15.52 80.93-15.44 80.88-15.35 80.88-15.24L80.88-15.24 80.88-1.1Q80.88-0.58 80.49-0.21 80.1 0.17 79.58 0.17L79.58 0.17ZM102.21 0.03Q101.49 0.03 100.97-0.5 100.45-1.02 100.45-1.74L100.45-1.74 100.45-18.11Q100.45-18.63 100.82-19.02 101.19-19.41 101.72-19.41L101.72-19.41Q102.24-19.41 102.62-19.02 103.01-18.63 103.01-18.11L103.01-18.11 103.01-2.87Q103.01-2.54 103.34-2.54L103.34-2.54 112-2.54Q112.52-2.54 112.91-2.15 113.29-1.76 113.29-1.24L113.29-1.24Q113.29-0.72 112.91-0.34 112.52 0.03 112 0.03L112 0.03 102.21 0.03ZM117.59 0.17Q117.07 0.17 116.7-0.21 116.32-0.58 116.32-1.1L116.32-1.1 116.32-18.11Q116.32-18.63 116.7-19.02 117.07-19.41 117.59-19.41L117.59-19.41Q118.12-19.41 118.5-19.02 118.89-18.63 118.89-18.11L118.89-18.11 118.89-1.1Q118.89-0.58 118.5-0.21 118.12 0.17 117.59 0.17L117.59 0.17ZM132.73 0.3Q129.86 0.3 127.68-0.96L127.68-0.96Q125.45-2.23 124.24-4.48 123.02-6.73 123.02-9.59L123.02-9.59Q123.02-12.51 124.29-14.77L124.29-14.77Q125.56-17.04 127.76-18.29 129.97-19.54 132.64-19.54L132.64-19.54Q134.68-19.54 136.3-19.05 137.91-18.55 139.51-17.56L139.51-17.56Q139.75-17.45 139.92-17.16 140.09-16.87 140.09-16.54L140.09-16.54Q140.09-16.07 139.75-15.73 139.42-15.38 138.9-15.38L138.9-15.38Q138.65-15.38 138.32-15.52L138.32-15.52Q137-16.29 135.7-16.68 134.41-17.06 132.92-17.06L132.92-17.06Q130.91-17.06 129.14-16.18L129.14-16.18Q127.43-15.27 126.51-13.56 125.59-11.85 125.59-9.59L125.59-9.59Q125.59-7.47 126.5-5.76L126.5-5.76Q127.41-4.02 129.11-3.07 130.82-2.12 133.06-2.12L133.06-2.12Q135.59-2.12 137.85-3.34L137.85-3.34 137.85-7.94Q137.85-8.27 137.52-8.27L137.52-8.27 133.33-8.27Q132.86-8.27 132.52-8.61 132.17-8.96 132.17-9.43L132.17-9.43Q132.17-9.9 132.52-10.24 132.86-10.58 133.33-10.58L133.33-10.58 138.76-10.58Q139.31-10.58 139.71-10.19 140.11-9.79 140.11-9.23L140.11-9.23 140.11-2.98Q140.11-2.4 139.84-1.94 139.56-1.49 139.04-1.24L139.04-1.24Q135.9 0.3 132.73 0.3L132.73 0.3ZM146.32 0.17Q145.79 0.17 145.42-0.21 145.05-0.58 145.05-1.1L145.05-1.1 145.05-18.11Q145.05-18.63 145.42-19.02 145.79-19.41 146.32-19.41L146.32-19.41Q146.84-19.41 147.23-19.02 147.61-18.63 147.61-18.11L147.61-18.11 147.61-10.81 158-10.81 158-18.11Q158-18.63 158.38-19.02 158.75-19.41 159.27-19.41L159.27-19.41Q159.79-19.41 160.18-19.02 160.57-18.63 160.57-18.11L160.57-18.11 160.57-1.1Q160.57-0.58 160.18-0.21 159.79 0.17 159.27 0.17L159.27 0.17Q158.75 0.17 158.38-0.21 158-0.58 158-1.1L158-1.1 158-8.41 147.61-8.41 147.61-1.1Q147.61-0.58 147.23-0.21 146.84 0.17 146.32 0.17L146.32 0.17ZM171.59 0.17Q171.07 0.17 170.7-0.21 170.32-0.58 170.32-1.1L170.32-1.1 170.32-16.87 164.73-16.87Q164.23-16.87 163.89-17.21 163.54-17.56 163.54-18.06L163.54-18.06Q163.54-18.55 163.89-18.91 164.23-19.27 164.73-19.27L164.73-19.27 178.46-19.27Q178.95-19.27 179.31-18.91 179.67-18.55 179.67-18.06L179.67-18.06Q179.67-17.56 179.31-17.21 178.95-16.87 178.46-16.87L178.46-16.87 172.89-16.87 172.89-1.1Q172.89-0.58 172.5-0.21 172.12 0.17 171.59 0.17L171.59 0.17Z" transform="translate(-1.4900000095367432, 19.540000915527344)"></path></g> <!----> <!----> <!----> <!----> <!----> <!----> <!----></g></g> <!----></g></g><defs v-gra="od"></defs></svg>